<?xml version="1.0" encoding="UTF-8"?>
<svg width="143px" height="143px" viewBox="0 0 143 143" version="1.1" xmlns="http://www.w3.org/2000/svg" xmlns:xlink="http://www.w3.org/1999/xlink">
    <title>Combined Shape</title>
    <g id="Page-1" stroke="none" stroke-width="1" fill="none" fill-rule="evenodd">
        <path d="M116.528308,0.03035 C133.332153,0.03035 142.07417,8.75725609 142.07417,25.3476288 L142.07417,116.660758 C142.07417,133.291329 133.332153,142.03035 116.528308,142.03035 L25.6199587,142.03035 C8.76469562,142.03035 0.07417,133.342725 0.07417,116.660758 L0.07417,25.3476288 C0.07417,8.70567733 8.76469562,0.03035 25.6199587,0.03035 Z M115.741242,13.8112404 L26.4070249,13.8112404 C18.27009,13.8112404 13.861344,18.0586872 13.861344,26.5170533 L13.861344,115.531532 C13.861344,123.938503 18.27009,128.238079 26.4070249,128.238079 L115.741242,128.238079 C123.71272,128.238079 128.287106,123.938503 128.287106,115.531532 L128.287106,26.5170533 C128.287106,18.0586872 123.71272,13.8112404 115.741242,13.8112404 Z M96.4318598,28.0603779 C101.05895,26.8457991 102.392151,28.3566346 102.392151,31.788366 L102.392151,48.3273435 C102.392151,53.2774361 101.102839,54.3604065 96.8874621,55.3578406 L76.858776,60.1886229 C75.0549143,60.553896 74.4208173,61.2903159 74.4208173,64.3369503 L74.4208173,93.9205819 C74.4208173,106.290123 66.2286078,115.049702 53.9277144,115.049702 C45.3526227,115.049702 39.7788866,109.774535 39.7788866,102.372707 C39.7788866,94.1652598 46.0680707,89.4159756 54.1221855,87.3293302 L62.025902,85.2815984 C66.243666,84.0719755 66.57513,83.4609232 66.57513,79.7757033 L66.57513,41.2217726 C66.57513,36.134932 67.4701744,35.1661324 71.7771858,34.1398802 Z" id="Combined-Shape" fill="#FFFFFF" fill-rule="nonzero"></path>
    </g>
</svg>